<?xml version="1.0" encoding="UTF-8"?>
<!DOCTYPE svg PUBLIC "-//W3C//DTD SVG 1.1//EN" "http://www.w3.org/Graphics/SVG/1.1/DTD/svg11.dtd">
<svg version="1.2" width="247.14mm" height="247.14mm" viewBox="0 0 24714 24714" preserveAspectRatio="xMidYMid" fill-rule="evenodd" stroke-width="28.222" stroke-linejoin="round" xmlns="http://www.w3.org/2000/svg" xmlns:ooo="http://xml.openoffice.org/svg/export" xmlns:xlink="http://www.w3.org/1999/xlink" xmlns:presentation="http://sun.com/xmlns/staroffice/presentation" xmlns:smil="http://www.w3.org/2001/SMIL20/" xmlns:anim="urn:oasis:names:tc:opendocument:xmlns:animation:1.0" xml:space="preserve">
 <defs class="ClipPathGroup">
  <clipPath id="presentation_clip_path" clipPathUnits="userSpaceOnUse">
   <rect x="0" y="0" width="24714" height="24714"/>
  </clipPath>
  <clipPath id="presentation_clip_path_shrink" clipPathUnits="userSpaceOnUse">
   <rect x="24" y="24" width="24665" height="24665"/>
  </clipPath>
 </defs>
 <defs class="TextShapeIndex">
  <g ooo:slide="id1" ooo:id-list="id3 id4"/>
 </defs>
 <defs class="EmbeddedBulletChars">
  <g id="bullet-char-template-57356" transform="scale(0.00048828125,-0.00048828125)">
   <path d="M 580,1141 L 1163,571 580,0 -4,571 580,1141 Z"/>
  </g>
  <g id="bullet-char-template-57354" transform="scale(0.00048828125,-0.00048828125)">
   <path d="M 8,1128 L 1137,1128 1137,0 8,0 8,1128 Z"/>
  </g>
  <g id="bullet-char-template-10146" transform="scale(0.00048828125,-0.00048828125)">
   <path d="M 174,0 L 602,739 174,1481 1456,739 174,0 Z M 1358,739 L 309,1346 659,739 1358,739 Z"/>
  </g>
  <g id="bullet-char-template-10132" transform="scale(0.00048828125,-0.00048828125)">
   <path d="M 2015,739 L 1276,0 717,0 1260,543 174,543 174,936 1260,936 717,1481 1274,1481 2015,739 Z"/>
  </g>
  <g id="bullet-char-template-10007" transform="scale(0.00048828125,-0.00048828125)">
   <path d="M 0,-2 C -7,14 -16,27 -25,37 L 356,567 C 262,823 215,952 215,954 215,979 228,992 255,992 264,992 276,990 289,987 310,991 331,999 354,1012 L 381,999 492,748 772,1049 836,1024 860,1049 C 881,1039 901,1025 922,1006 886,937 835,863 770,784 769,783 710,716 594,584 L 774,223 C 774,196 753,168 711,139 L 727,119 C 717,90 699,76 672,76 641,76 570,178 457,381 L 164,-76 C 142,-110 111,-127 72,-127 30,-127 9,-110 8,-76 1,-67 -2,-52 -2,-32 -2,-23 -1,-13 0,-2 Z"/>
  </g>
  <g id="bullet-char-template-10004" transform="scale(0.00048828125,-0.00048828125)">
   <path d="M 285,-33 C 182,-33 111,30 74,156 52,228 41,333 41,471 41,549 55,616 82,672 116,743 169,778 240,778 293,778 328,747 346,684 L 369,508 C 377,444 397,411 428,410 L 1163,1116 C 1174,1127 1196,1133 1229,1133 1271,1133 1292,1118 1292,1087 L 1292,965 C 1292,929 1282,901 1262,881 L 442,47 C 390,-6 338,-33 285,-33 Z"/>
  </g>
  <g id="bullet-char-template-9679" transform="scale(0.00048828125,-0.00048828125)">
   <path d="M 813,0 C 632,0 489,54 383,161 276,268 223,411 223,592 223,773 276,916 383,1023 489,1130 632,1184 813,1184 992,1184 1136,1130 1245,1023 1353,916 1407,772 1407,592 1407,412 1353,268 1245,161 1136,54 992,0 813,0 Z"/>
  </g>
  <g id="bullet-char-template-8226" transform="scale(0.00048828125,-0.00048828125)">
   <path d="M 346,457 C 273,457 209,483 155,535 101,586 74,649 74,723 74,796 101,859 155,911 209,963 273,989 346,989 419,989 480,963 531,910 582,859 608,796 608,723 608,648 583,586 532,535 482,483 420,457 346,457 Z"/>
  </g>
  <g id="bullet-char-template-8211" transform="scale(0.00048828125,-0.00048828125)">
   <path d="M -4,459 L 1135,459 1135,606 -4,606 -4,459 Z"/>
  </g>
  <g id="bullet-char-template-61548" transform="scale(0.00048828125,-0.00048828125)">
   <path d="M 173,740 C 173,903 231,1043 346,1159 462,1274 601,1332 765,1332 928,1332 1067,1274 1183,1159 1299,1043 1357,903 1357,740 1357,577 1299,437 1183,322 1067,206 928,148 765,148 601,148 462,206 346,322 231,437 173,577 173,740 Z"/>
  </g>
 </defs>
 <g>
  <g id="id2" class="Master_Slide">
   <g id="bg-id2" class="Background"/>
   <g id="bo-id2" class="BackgroundObjects"/>
  </g>
 </g>
 <g class="SlideGroup">
  <g>
   <g id="container-id1">
    <g id="id1" class="Slide" clip-path="url(#presentation_clip_path)">
     <g class="Page">
      <g class="com.sun.star.drawing.CustomShape">
       <g id="id3">
        <rect class="BoundingBox" stroke="none" fill="none" x="538" y="520" width="23768" height="23768"/>
        <path fill="none" stroke="rgb(0,0,0)" stroke-width="1058" stroke-linejoin="round" d="M 23776,12403 C 23776,14397 23251,16355 22255,18081 21258,19807 19825,21240 18099,22237 16373,23233 14415,23758 12422,23758 10428,23758 8470,23233 6744,22237 5018,21240 3585,19807 2588,18081 1592,16355 1067,14397 1067,12404 1067,10410 1592,8452 2588,6726 3585,5000 5018,3567 6744,2570 8470,1574 10428,1049 12421,1049 14415,1049 16373,1574 18099,2570 19825,3567 21258,5000 22255,6726 23251,8452 23776,10410 23776,12403 L 23776,12403 Z"/>
       </g>
      </g>
      <g class="Graphic">
       <g id="id4">
        <rect class="BoundingBox" stroke="none" fill="none" x="5145" y="4839" width="14655" height="18771"/>
        <defs>
         <clipPath id="clip_path_1" clipPathUnits="userSpaceOnUse">
          <path d="M 5165,4839 L 19799,4839 19779,23609 5145,23609 5165,4839 Z"/>
         </clipPath>
        </defs>
        <g clip-path="url(#clip_path_1)">
         <path fill="rgb(0,0,0)" stroke="none" d="M 6634,13121 C 7116,13262 7711,13319 8363,13319 L 8589,13319 8731,13319 C 8674,13347 8618,13376 8589,13404 7398,14169 6349,15303 6745,15926 6830,16068 7028,16210 7396,16210 7566,16210 7765,16181 8020,16096 8558,15955 9182,15643 9806,15246 9834,15218 9891,15189 9919,15161 9862,15246 9862,15303 9834,15359 9521,16011 9322,16691 9237,17229 9122,18051 9377,18363 9604,18476 9689,18505 9774,18533 9830,18533 10482,18533 11305,17428 11845,16295 11901,16210 11930,16096 11958,16011 11672,18533 11328,22925 11891,26127 11919,26269 12032,26354 12174,26354 L 12231,26354 C 12372,26326 12486,26184 12458,26014 11866,22784 12268,18193 12554,15756 12610,15955 12666,16181 12723,16380 12949,17088 13260,17711 13571,18165 13967,18703 14279,18845 14505,18845 14562,18845 14619,18845 14675,18817 14902,18732 15214,18477 15187,17627 15187,17088 15046,16380 14820,15700 14820,15672 14792,15615 14764,15587 14820,15615 14849,15672 14905,15700 15471,16181 16038,16550 16548,16777 16859,16918 17114,16975 17312,16975 17596,16975 17738,16862 17851,16748 18362,16153 17428,14907 16352,14000 16324,13971 16296,13943 16239,13915 16296,13915 16352,13943 16409,13943 16834,14000 17231,14028 17599,14028 17882,14028 18137,14000 18364,13971 19186,13830 19413,13518 19442,13263 19470,13008 19357,12639 18621,12271 18140,12016 17460,11846 16723,11732 16666,11732 16638,11732 16582,11704 16638,11676 16695,11676 16752,11647 17432,11364 18027,10996 18453,10656 19105,10117 19105,9720 19021,9494 18710,8785 17179,9069 15904,9607 15875,9635 15819,9635 15790,9664 15819,9607 15847,9579 15904,9522 16727,8360 17295,6943 16672,6490 16474,6348 16077,6291 15397,6773 14971,7113 14489,7623 14063,8218 14035,8247 14007,8303 13978,8332 L 13978,8162 C 14065,6745 13812,5215 13046,5186 12281,5130 11827,6631 11740,8020 L 11740,8162 C 11712,8105 11683,8048 11655,7992 11005,6745 9957,5583 9305,5951 8625,6320 9048,7822 9699,9040 9727,9068 9755,9125 9755,9153 9699,9125 9670,9097 9614,9068 8991,8700 8339,8445 7801,8303 6980,8133 6668,8332 6526,8558 6384,8785 6468,9210 7034,9833 7402,10230 7969,10655 8592,11023 8620,11052 8677,11080 8705,11080 L 8535,11080 C 7118,11108 5616,11505 5643,12270 5643,12554 5813,12894 6634,13121 L 6634,13121 Z M 9466,14821 C 8162,15671 7312,15756 7198,15643 7142,15501 7568,14736 8872,13886 9893,13206 10658,13007 10970,13007 11055,13007 11111,13007 11140,13036 11196,13206 10770,13971 9466,14821 L 9466,14821 Z M 11335,16068 C 10682,17456 10001,17994 9831,17966 9718,17881 9690,17003 10344,15586 10968,14226 11649,13687 11819,13687 11960,13801 11988,14679 11335,16068 L 11335,16068 Z M 13290,16238 C 12810,14764 12952,13914 13094,13829 13264,13829 13858,14453 14338,15898 14790,17371 14648,18221 14534,18306 14364,18306 13770,17683 13290,16238 Z M 17455,16379 C 17341,16464 16492,16266 15303,15274 14114,14282 13803,13461 13860,13319 13888,13319 13916,13291 13945,13291 14228,13291 14993,13546 16012,14424 17201,15444 17540,16266 17455,16379 L 17455,16379 Z M 16722,12327 C 18252,12554 18960,13064 18960,13234 18903,13376 18081,13659 16551,13433 15021,13206 14313,12696 14314,12526 14342,12413 14796,12242 15617,12242 15929,12214 16298,12242 16722,12327 Z M 16186,10145 C 17094,9749 17774,9635 18170,9635 18397,9635 18539,9664 18567,9720 18595,9862 18028,10542 16610,11137 15193,11732 14314,11676 14230,11562 14201,11420 14769,10741 16186,10145 L 16186,10145 Z M 14601,8587 C 15453,7397 16190,6971 16388,6971 L 16416,6971 C 16529,7085 16387,7963 15507,9210 14627,10457 13834,10882 13692,10825 13579,10712 13693,9834 14601,8587 L 14601,8587 Z M 12613,13262 C 12046,13262 11622,12809 11622,12271 11623,11732 12077,11279 12615,11279 13153,11279 13606,11732 13606,12271 13605,12809 13180,13262 12613,13262 Z M 12392,8077 C 12478,6547 12932,5782 13074,5753 13216,5810 13583,6603 13468,8133 13382,9663 12928,10429 12786,10457 12644,10429 12305,9635 12392,8077 Z M 9673,6490 C 9815,6433 10551,6943 11258,8304 11993,9664 11992,10542 11879,10627 11737,10684 11001,10174 10294,8814 9559,7453 9560,6575 9673,6490 Z M 7092,8899 C 7205,8785 8084,8842 9415,9607 10746,10372 11227,11109 11170,11250 11057,11364 10178,11307 8847,10542 7544,9777 7064,9040 7092,8899 Z M 8761,11676 C 10149,11676 10857,12016 10886,12157 10857,12299 10092,12724 8533,12781 7003,12838 6210,12441 6154,12299 6239,12129 7004,11704 8534,11676 L 8761,11676 Z"/>
         <path fill="rgb(0,0,0)" stroke="none" d="M -1392,34005 C -1441,34030 -1492,34049 -1545,34061 -1598,34075 -1654,34081 -1711,34081 -1883,34081 -2020,34033 -2120,33937 -2221,33841 -2271,33710 -2271,33546 -2270,33381 -2220,33251 -2119,33155 -2018,33058 -1882,33010 -1710,33010 -1652,33010 -1597,33017 -1544,33030 -1491,33042 -1440,33061 -1391,33087 L -1391,33300 C -1441,33267 -1490,33242 -1537,33227 -1585,33211 -1636,33203 -1689,33203 -1784,33203 -1859,33233 -1913,33295 -1967,33355 -1995,33439 -1995,33546 -1995,33653 -1968,33736 -1914,33797 -1859,33858 -1785,33888 -1690,33888 -1637,33888 -1586,33881 -1538,33865 -1490,33850 -1441,33825 -1392,33791 L -1392,34005 Z"/>
         <path fill="rgb(0,0,0)" stroke="none" d="M -606,33498 C -628,33488 -650,33480 -672,33476 -693,33470 -714,33468 -736,33468 -800,33468 -849,33488 -883,33529 -917,33570 -934,33628 -935,33704 L -935,34061 -1182,34061 -1182,33287 -934,33287 -934,33414 C -903,33363 -866,33327 -825,33303 -783,33280 -734,33268 -676,33268 -668,33268 -659,33268 -649,33269 -640,33270 -625,33271 -607,33273 L -606,33498 Z"/>
         <path fill="rgb(0,0,0)" stroke="none" d="M 290,33672 L 290,33743 -290,33743 C -283,33801 -262,33844 -226,33873 -191,33902 -140,33917 -75,33917 -23,33917 30,33909 84,33894 139,33878 195,33855 253,33823 L 252,34014 C 194,34036 135,34053 77,34064 18,34075 -40,34081 -99,34081 -239,34081 -348,34046 -426,33974 -503,33903 -542,33804 -542,33675 -542,33548 -503,33449 -427,33377 -350,33304 -245,33268 -112,33268 10,33268 107,33305 180,33378 253,33452 290,33550 290,33672 L 290,33672 Z M 36,33589 C 36,33543 22,33505 -5,33476 -33,33448 -69,33433 -113,33433 -161,33433 -200,33446 -230,33473 -260,33500 -279,33539 -286,33589 L 36,33589 Z"/>
         <path fill="rgb(0,0,0)" stroke="none" d="M 825,33713 C 773,33713 734,33721 708,33739 682,33756 669,33782 669,33816 669,33848 679,33873 700,33891 721,33908 750,33917 787,33917 834,33917 873,33900 905,33867 937,33833 953,33791 953,33741 L 953,33713 825,33713 Z M 1203,33619 L 1202,34061 953,34061 953,33947 C 920,33994 882,34028 841,34050 799,34071 749,34081 689,34081 609,34081 544,34058 494,34012 444,33965 419,33904 419,33829 419,33738 450,33672 512,33630 575,33587 673,33566 807,33566 L 954,33566 954,33546 C 954,33507 938,33479 907,33461 876,33442 828,33433 762,33433 709,33433 660,33438 614,33449 568,33459 526,33475 487,33496 L 487,33307 C 540,33295 593,33285 646,33278 700,33271 754,33268 808,33268 947,33268 1048,33295 1110,33351 1172,33406 1203,33495 1203,33619 L 1203,33619 Z"/>
         <path fill="rgb(0,0,0)" stroke="none" d="M 1705,33067 L 1704,33287 1960,33287 1960,33464 1704,33464 1704,33793 C 1704,33829 1711,33853 1725,33865 1739,33878 1767,33884 1810,33884 L 1937,33884 1937,34061 1725,34061 C 1627,34061 1557,34041 1516,34001 1476,33959 1456,33890 1456,33793 L 1456,33464 1333,33464 1334,33287 1456,33287 1456,33067 1705,33067 Z"/>
         <path fill="rgb(0,0,0)" stroke="none" d="M 2884,33672 L 2884,33743 2305,33743 C 2311,33801 2332,33844 2368,33873 2403,33902 2454,33917 2519,33917 2571,33917 2624,33909 2678,33894 2733,33878 2789,33855 2847,33823 L 2847,34014 C 2788,34036 2730,34053 2671,34064 2613,34075 2554,34081 2496,34081 2355,34081 2246,34046 2168,33974 2091,33903 2052,33804 2052,33675 2053,33548 2091,33449 2167,33377 2244,33304 2349,33268 2482,33268 2604,33268 2701,33305 2775,33378 2848,33452 2884,33550 2884,33672 L 2884,33672 Z M 2630,33589 C 2630,33543 2616,33505 2589,33476 2561,33448 2525,33433 2481,33433 2433,33433 2394,33446 2364,33473 2334,33500 2315,33539 2308,33589 L 2630,33589 Z"/>
         <path fill="rgb(0,0,0)" stroke="none" d="M 3599,33400 L 3599,32985 3848,32985 3847,34061 3598,34061 3598,33949 C 3564,33995 3527,34029 3486,34050 3444,34071 3397,34081 3342,34081 3247,34081 3169,34043 3108,33967 3047,33891 3016,33794 3016,33675 3017,33555 3047,33457 3108,33382 3170,33306 3248,33268 3343,33268 3397,33268 3445,33279 3486,33300 3527,33322 3565,33355 3599,33400 L 3599,33400 Z M 3435,33902 C 3488,33902 3528,33883 3556,33844 3584,33805 3598,33749 3598,33675 3598,33601 3584,33545 3557,33506 3529,33467 3488,33448 3436,33448 3383,33448 3343,33467 3315,33506 3287,33545 3273,33601 3273,33675 3272,33749 3286,33805 3314,33844 3342,33883 3382,33902 3435,33902 L 3435,33902 Z"/>
         <path fill="rgb(0,0,0)" stroke="none" d="M 4991,33902 C 5044,33902 5085,33883 5113,33844 5141,33805 5155,33749 5155,33675 5155,33601 5141,33545 5113,33506 5085,33467 5045,33448 4991,33448 4938,33448 4897,33467 4869,33506 4841,33546 4827,33602 4827,33675 4827,33748 4840,33804 4868,33843 4897,33882 4938,33902 4991,33902 L 4991,33902 Z M 4827,33400 C 4861,33355 4899,33322 4940,33300 4982,33279 5029,33268 5083,33268 5179,33268 5258,33306 5319,33382 5380,33457 5410,33555 5410,33675 5410,33794 5379,33891 5318,33967 5257,34043 5178,34081 5082,34081 5029,34081 4981,34071 4939,34050 4898,34028 4861,33995 4826,33949 L 4826,34061 4579,34061 4580,32985 4827,32985 4827,33400 Z"/>
         <path fill="rgb(0,0,0)" stroke="none" d="M 5492,33287 L 5739,33287 5947,33812 6125,33287 6372,33287 6046,34135 C 6013,34221 5975,34281 5931,34315 5887,34350 5830,34367 5759,34367 L 5615,34367 5615,34205 5692,34205 C 5735,34205 5765,34198 5784,34184 5804,34171 5819,34147 5829,34113 L 5836,34092 5492,33287 Z"/>
         <path fill="rgb(0,0,0)" stroke="none" d="M 7022,33029 L 7360,33029 7595,33582 7832,33029 8171,33029 8170,34061 7917,34061 7918,33306 7680,33863 7511,33863 7274,33306 7273,34061 7021,34061 7022,33029 Z"/>
         <path fill="rgb(0,0,0)" stroke="none" d="M 8767,33713 C 8715,33713 8676,33721 8650,33739 8624,33756 8611,33782 8611,33816 8611,33848 8621,33873 8642,33891 8663,33908 8692,33917 8729,33917 8776,33917 8816,33900 8847,33867 8879,33833 8896,33791 8896,33741 L 8896,33713 8767,33713 Z M 9145,33619 L 9144,34061 8895,34061 8895,33947 C 8862,33994 8825,34028 8783,34050 8741,34071 8691,34081 8631,34081 8551,34081 8486,34058 8436,34012 8386,33965 8361,33904 8361,33829 8361,33738 8392,33672 8455,33630 8517,33587 8616,33566 8750,33566 L 8896,33566 8896,33546 C 8896,33507 8880,33479 8849,33461 8818,33442 8770,33433 8705,33433 8651,33433 8602,33438 8556,33449 8510,33459 8468,33475 8429,33496 L 8430,33307 C 8482,33295 8535,33285 8589,33278 8642,33271 8696,33268 8750,33268 8889,33268 8990,33295 9052,33351 9114,33406 9145,33495 9145,33619 L 9145,33619 Z"/>
         <path fill="rgb(0,0,0)" stroke="none" d="M 9903,33400 L 9903,32985 10152,32985 10151,34061 9902,34061 9902,33949 C 9868,33995 9831,34029 9790,34050 9749,34071 9701,34081 9647,34081 9551,34081 9473,34043 9412,33967 9351,33891 9321,33794 9321,33675 9321,33555 9351,33457 9413,33382 9474,33306 9552,33268 9648,33268 9701,33268 9749,33279 9790,33300 9831,33322 9869,33355 9903,33400 L 9903,33400 Z M 9739,33902 C 9792,33902 9832,33883 9860,33844 9888,33805 9902,33749 9903,33675 9903,33601 9889,33545 9861,33506 9833,33467 9792,33448 9740,33448 9687,33448 9647,33467 9619,33506 9591,33545 9577,33601 9577,33675 9577,33749 9591,33805 9619,33844 9646,33883 9687,33902 9739,33902 L 9739,33902 Z"/>
         <path fill="rgb(0,0,0)" stroke="none" d="M 11163,33672 L 11163,33743 10584,33743 C 10590,33801 10611,33844 10647,33873 10682,33902 10733,33917 10798,33917 10850,33917 10903,33909 10957,33894 11012,33878 11068,33855 11126,33823 L 11126,34014 C 11067,34036 11009,34053 10950,34064 10892,34075 10833,34081 10775,34081 10634,34081 10525,34046 10447,33974 10370,33903 10331,33804 10331,33675 10332,33548 10370,33449 10446,33377 10523,33304 10628,33268 10761,33268 10883,33268 10980,33305 11054,33378 11127,33452 11163,33550 11163,33672 L 11163,33672 Z M 10909,33589 C 10909,33543 10895,33505 10868,33476 10840,33448 10804,33433 10760,33433 10712,33433 10673,33446 10643,33473 10613,33500 10594,33539 10587,33589 L 10909,33589 Z"/>
         <path fill="rgb(0,0,0)" stroke="none" d="M 12256,33902 C 12309,33902 12350,33883 12378,33844 12406,33805 12420,33749 12420,33675 12420,33601 12406,33545 12378,33506 12350,33467 12310,33448 12256,33448 12203,33448 12162,33467 12134,33506 12106,33546 12092,33602 12092,33675 12092,33748 12105,33804 12133,33843 12162,33882 12203,33902 12256,33902 L 12256,33902 Z M 12092,33400 C 12126,33355 12164,33322 12205,33300 12247,33279 12295,33268 12348,33268 12444,33268 12523,33306 12584,33382 12645,33457 12675,33555 12675,33675 12675,33794 12644,33891 12583,33967 12522,34043 12443,34081 12347,34081 12294,34081 12246,34071 12204,34050 12163,34028 12126,33995 12091,33949 L 12091,34061 11844,34061 11845,32985 12092,32985 12092,33400 Z"/>
         <path fill="rgb(0,0,0)" stroke="none" d="M 12757,33287 L 13004,33287 13212,33812 13390,33287 13637,33287 13311,34135 C 13278,34221 13240,34281 13196,34315 13152,34350 13095,34367 13023,34367 L 12880,34367 12880,34205 12957,34205 C 12999,34205 13030,34198 13049,34184 13068,34171 13083,34147 13094,34113 L 13101,34092 12757,33287 Z"/>
         <path fill="rgb(0,0,0)" stroke="none" d="M 14287,33029 L 14625,33029 14860,33582 15097,33029 15435,33029 15434,34061 15182,34061 15183,33306 14944,33863 14776,33863 14539,33306 14538,34061 14286,34061 14287,33029 Z"/>
         <path fill="rgb(0,0,0)" stroke="none" d="M 16032,33713 C 15980,33713 15941,33721 15915,33739 15889,33756 15876,33782 15876,33816 15876,33848 15887,33873 15908,33891 15929,33908 15958,33917 15995,33917 16042,33917 16081,33900 16113,33867 16145,33833 16161,33791 16161,33741 L 16161,33713 16032,33713 Z M 16410,33619 L 16410,34061 16161,34061 16161,33947 C 16127,33994 16090,34028 16048,34050 16007,34071 15956,34081 15896,34081 15816,34081 15751,34058 15701,34012 15651,33965 15626,33904 15626,33829 15626,33738 15658,33672 15720,33630 15783,33587 15881,33566 16015,33566 L 16161,33566 16161,33546 C 16161,33507 16146,33479 16115,33461 16083,33442 16035,33433 15970,33433 15916,33433 15867,33438 15821,33449 15776,33459 15734,33475 15695,33496 L 15695,33307 C 15747,33295 15800,33285 15854,33278 15908,33271 15961,33268 16015,33268 16155,33268 16255,33295 16317,33351 16379,33406 16410,33495 16410,33619 L 16410,33619 Z"/>
         <path fill="rgb(0,0,0)" stroke="none" d="M 17168,33400 L 17168,32985 17417,32985 17416,34061 17167,34061 17167,33949 C 17133,33995 17096,34029 17055,34050 17014,34071 16966,34081 16912,34081 16816,34081 16738,34043 16677,33967 16616,33891 16585,33794 16586,33675 16586,33555 16616,33457 16678,33382 16739,33306 16817,33268 16912,33268 16966,33268 17014,33279 17055,33300 17096,33322 17134,33355 17168,33400 L 17168,33400 Z M 17004,33902 C 17057,33902 17097,33883 17125,33844 17153,33805 17167,33749 17167,33675 17167,33601 17153,33545 17126,33506 17098,33467 17057,33448 17005,33448 16952,33448 16912,33467 16884,33506 16856,33545 16842,33601 16842,33675 16842,33749 16855,33805 16883,33844 16911,33883 16952,33902 17004,33902 L 17004,33902 Z"/>
         <path fill="rgb(0,0,0)" stroke="none" d="M 18428,33672 L 18428,33743 17849,33743 C 17855,33801 17876,33844 17912,33873 17948,33902 17998,33917 18063,33917 18115,33917 18168,33909 18223,33894 18277,33878 18334,33855 18391,33823 L 18391,34014 C 18332,34036 18274,34053 18215,34064 18157,34075 18098,34081 18040,34081 17899,34081 17790,34046 17713,33974 17635,33903 17597,33804 17597,33675 17597,33548 17635,33449 17712,33377 17788,33304 17893,33268 18026,33268 18148,33268 18246,33305 18319,33378 18392,33452 18429,33550 18428,33672 L 18428,33672 Z M 18174,33589 C 18174,33543 18160,33505 18133,33476 18105,33448 18070,33433 18025,33433 17977,33433 17938,33446 17908,33473 17878,33500 17860,33539 17852,33589 L 18174,33589 Z"/>
         <path fill="rgb(0,0,0)" stroke="none" d="M -1713,34401 L -1714,34564 -1850,34564 C -1885,34564 -1910,34571 -1924,34583 -1938,34596 -1944,34618 -1944,34650 L -1945,34703 -1733,34703 -1733,34881 -1945,34881 -1945,35478 -2193,35478 -2192,34881 -2316,34881 -2315,34703 -2192,34703 -2192,34650 C -2192,34566 -2168,34503 -2121,34462 -2074,34422 -2002,34401 -1902,34401 L -1713,34401 Z"/>
         <path fill="rgb(0,0,0)" stroke="none" d="M -1031,34915 C -1053,34905 -1075,34897 -1097,34892 -1118,34887 -1139,34884 -1161,34884 -1225,34884 -1274,34905 -1308,34946 -1342,34987 -1359,35045 -1359,35121 L -1360,35478 -1607,35478 -1606,34703 -1359,34703 -1359,34831 C -1327,34780 -1291,34743 -1250,34720 -1208,34696 -1159,34684 -1101,34684 -1093,34684 -1084,34685 -1074,34686 -1064,34687 -1050,34688 -1032,34690 L -1031,34915 Z"/>
         <path fill="rgb(0,0,0)" stroke="none" d="M -665,34921 C -694,34960 -709,35017 -709,35092 -709,35166 -695,35223 -666,35262 -637,35302 -595,35321 -540,35321 -486,35321 -445,35302 -417,35262 -388,35223 -373,35166 -373,35092 -373,35017 -387,34960 -416,34921 -445,34881 -486,34862 -539,34862 -594,34862 -636,34881 -665,34921 Z M -227,34793 C -152,34865 -115,34964 -115,35092 -115,35219 -153,35318 -228,35390 -303,35462 -407,35498 -540,35498 -674,35498 -779,35462 -854,35390 -929,35318 -967,35219 -967,35092 -966,34964 -929,34865 -853,34793 -778,34721 -673,34684 -539,34684 -406,34684 -302,34721 -227,34793 Z"/>
         <path fill="rgb(0,0,0)" stroke="none" d="M 783,34832 C 814,34784 852,34748 895,34722 938,34697 985,34684 1037,34684 1126,34684 1194,34712 1240,34767 1287,34822 1311,34902 1310,35006 L 1310,35478 1061,35478 1061,35074 1061,35056 C 1062,35049 1062,35040 1062,35028 1062,34973 1054,34933 1038,34909 1022,34884 996,34872 960,34872 913,34872 877,34891 851,34930 825,34969 812,35025 811,35098 L 811,35478 562,35478 562,35074 C 563,34988 555,34933 541,34909 526,34884 499,34872 461,34872 414,34872 377,34891 352,34930 326,34969 313,35024 313,35097 L 312,35478 63,35478 64,34703 313,34703 313,34817 C 343,34773 378,34740 417,34718 457,34696 500,34684 548,34684 602,34684 649,34698 690,34723 731,34749 762,34785 783,34832 L 783,34832 Z"/>
         <path fill="rgb(0,0,0)" stroke="none" d="M 2306,34484 L 2306,34703 2561,34703 2561,34881 2305,34881 2305,35209 C 2305,35245 2312,35270 2326,35282 2340,35295 2369,35301 2411,35301 L 2538,35301 2538,35478 2326,35478 C 2228,35478 2158,35458 2117,35417 2077,35376 2057,35307 2057,35209 L 2057,34881 1935,34881 1935,34703 2057,34703 2058,34484 2306,34484 Z"/>
         <path fill="rgb(0,0,0)" stroke="none" d="M 3490,35478 L 3241,35478 3242,35119 C 3242,35051 3240,35004 3237,34979 3234,34953 3229,34935 3221,34922 3212,34907 3199,34894 3182,34885 3165,34876 3147,34872 3126,34872 3074,34872 3033,34892 3004,34932 2974,34971 2959,35027 2959,35097 L 2959,35478 2711,35478 2713,34401 2960,34401 2960,34817 C 2997,34772 3037,34739 3078,34717 3120,34695 3167,34684 3218,34684 3307,34684 3375,34712 3421,34768 3468,34822 3491,34902 3491,35006 L 3490,35478 Z"/>
         <path fill="rgb(0,0,0)" stroke="none" d="M 4494,35089 L 4494,35160 3914,35160 C 3920,35218 3941,35261 3977,35290 4013,35319 4063,35334 4128,35334 4180,35334 4234,35326 4288,35311 4343,35295 4399,35272 4456,35240 L 4456,35431 C 4398,35453 4339,35470 4281,35481 4222,35492 4164,35498 4105,35498 3965,35498 3856,35462 3778,35391 3701,35320 3662,35220 3662,35092 3662,34965 3700,34866 3777,34794 3853,34721 3958,34684 4092,34684 4213,34684 4311,34721 4384,34795 4457,34869 4494,34966 4494,35089 L 4494,35089 Z M 4239,35006 C 4239,34959 4226,34922 4198,34893 4171,34864 4135,34850 4091,34850 4043,34850 4004,34863 3974,34890 3944,34917 3925,34956 3917,35006 L 4239,35006 Z"/>
         <path fill="rgb(0,0,0)" stroke="none" d="M 5186,34446 L 5484,34446 5858,35154 5859,34446 6111,34446 6110,35478 5813,35478 5438,34770 5437,35478 5185,35478 5186,34446 Z"/>
         <path fill="rgb(0,0,0)" stroke="none" d="M 6603,34921 C 6574,34960 6560,35017 6560,35092 6559,35166 6574,35223 6603,35262 6632,35302 6674,35321 6729,35321 6782,35321 6823,35302 6852,35262 6881,35223 6895,35166 6896,35092 6896,35017 6881,34960 6852,34921 6824,34881 6783,34862 6729,34862 6674,34862 6632,34881 6603,34921 Z M 7041,34793 C 7116,34865 7153,34964 7153,35092 7153,35219 7116,35318 7041,35390 6966,35462 6862,35498 6728,35498 6594,35498 6490,35462 6415,35390 6339,35318 6302,35219 6302,35092 6302,34964 6340,34865 6415,34793 6491,34721 6595,34684 6729,34684 6862,34684 6967,34721 7041,34793 Z"/>
         <path fill="rgb(0,0,0)" stroke="none" d="M 7325,35176 L 7325,34703 7575,34703 7574,34781 C 7574,34823 7574,34876 7573,34939 7573,35002 7573,35045 7573,35066 7572,35128 7574,35173 7577,35201 7581,35228 7586,35248 7594,35260 7604,35276 7618,35289 7634,35298 7650,35307 7669,35311 7690,35311 7742,35311 7782,35291 7812,35251 7841,35212 7856,35157 7856,35086 L 7857,34703 8104,34703 8103,35478 7856,35478 7856,35366 C 7818,35411 7779,35445 7737,35466 7696,35487 7650,35498 7599,35498 7510,35498 7442,35471 7395,35416 7348,35361 7325,35281 7325,35176 L 7325,35176 Z"/>
         <path fill="rgb(0,0,0)" stroke="none" d="M 9121,35478 L 8872,35478 8872,35117 C 8872,35050 8871,35004 8867,34979 8864,34953 8859,34935 8852,34922 8842,34907 8829,34894 8812,34885 8796,34876 8777,34872 8756,34872 8704,34872 8664,34892 8634,34932 8605,34971 8590,35027 8590,35097 L 8589,35478 8342,35478 8343,34703 8590,34703 8590,34817 C 8628,34772 8667,34739 8709,34717 8751,34695 8797,34685 8848,34685 8938,34685 9005,34712 9052,34768 9098,34822 9121,34902 9121,35006 L 9121,35478 Z"/>
         <path fill="rgb(0,0,0)" stroke="none" d="M 9856,34446 L 10298,34446 C 10429,34446 10530,34475 10600,34533 10670,34592 10706,34675 10705,34783 10705,34891 10670,34974 10599,35032 10529,35091 10428,35120 10297,35120 L 10121,35120 10120,35478 9855,35478 9856,34446 Z M 10121,34639 L 10121,34927 10269,34927 C 10320,34927 10360,34915 10388,34889 10417,34864 10431,34828 10431,34783 10431,34736 10417,34701 10388,34676 10360,34651 10321,34639 10269,34639 L 10121,34639 Z"/>
         <path fill="rgb(0,0,0)" stroke="none" d="M 11458,34915 C 11436,34905 11414,34897 11393,34892 11372,34887 11350,34884 11329,34884 11265,34884 11216,34905 11182,34946 11147,34987 11130,35045 11130,35121 L 11130,35478 10882,35478 10883,34703 11130,34703 11130,34831 C 11162,34780 11198,34743 11240,34720 11281,34696 11331,34684 11388,34684 11396,34684 11406,34685 11415,34686 11425,34687 11439,34688 11458,34690 L 11458,34915 Z"/>
         <path fill="rgb(0,0,0)" stroke="none" d="M 11824,34921 C 11795,34960 11780,35017 11780,35092 11780,35166 11795,35223 11824,35262 11852,35302 11894,35321 11949,35321 12003,35321 12044,35302 12073,35262 12102,35223 12116,35166 12116,35092 12116,35017 12102,34960 12073,34921 12045,34881 12003,34862 11950,34862 11895,34862 11853,34881 11824,34921 Z M 12262,34793 C 12337,34865 12374,34964 12374,35092 12374,35219 12336,35318 12261,35390 12186,35462 12082,35498 11949,35498 11815,35498 11711,35462 11635,35390 11560,35318 11522,35219 11523,35092 11523,34964 11560,34865 11636,34793 11711,34721 11816,34684 11950,34684 12083,34684 12187,34721 12262,34793 Z"/>
         <path fill="rgb(0,0,0)" stroke="none" d="M 12555,34703 L 12802,34703 12802,35464 C 12801,35568 12776,35647 12726,35702 12677,35757 12604,35784 12510,35784 L 12387,35784 12387,35621 12431,35621 C 12477,35621 12510,35611 12527,35590 12545,35569 12554,35527 12554,35464 L 12555,34703 Z M 12555,34401 L 12803,34401 12802,34604 12555,34604 12555,34401 Z"/>
         <path fill="rgb(0,0,0)" stroke="none" d="M 13813,35089 L 13813,35160 13234,35160 C 13240,35218 13261,35261 13297,35290 13333,35319 13383,35334 13448,35334 13500,35334 13553,35326 13608,35311 13662,35295 13718,35272 13776,35240 L 13776,35431 C 13717,35453 13659,35470 13600,35481 13542,35492 13483,35498 13425,35498 13284,35498 13175,35462 13098,35391 13020,35320 12982,35220 12982,35092 12982,34965 13020,34866 13097,34794 13173,34721 13278,34684 13411,34684 13533,34684 13631,34721 13704,34795 13777,34869 13813,34966 13813,35089 L 13813,35089 Z M 13559,35006 C 13559,34959 13545,34922 13518,34893 13490,34864 13455,34850 13410,34850 13362,34850 13323,34863 13293,34890 13263,34917 13244,34956 13237,35006 L 13559,35006 Z"/>
         <path fill="rgb(0,0,0)" stroke="none" d="M 14627,34728 L 14627,34930 C 14593,34906 14560,34889 14526,34878 14492,34867 14457,34862 14420,34862 14351,34862 14297,34882 14258,34922 14220,34963 14200,35019 14200,35092 14200,35164 14219,35220 14258,35261 14297,35301 14351,35321 14420,35321 14458,35321 14495,35315 14530,35304 14565,35293 14597,35276 14626,35253 L 14626,35455 C 14588,35470 14548,35480 14508,35487 14469,35494 14429,35498 14388,35498 14248,35498 14139,35462 14060,35391 13982,35319 13942,35219 13943,35092 13943,34964 13982,34864 14061,34792 14140,34720 14249,34685 14389,34685 14429,34685 14470,34688 14509,34696 14549,34702 14588,34713 14627,34728 L 14627,34728 Z"/>
         <path fill="rgb(0,0,0)" stroke="none" d="M 15112,34484 L 15112,34703 15367,34703 15367,34881 15111,34881 15111,35209 C 15111,35245 15118,35270 15132,35282 15146,35295 15175,35301 15217,35301 L 15344,35301 15344,35478 15132,35478 C 15034,35478 14964,35458 14923,35417 14883,35376 14863,35307 14863,35209 L 14863,34881 14741,34881 14741,34703 14863,34703 14863,34484 15112,34484 Z"/>
        </g>
       </g>
      </g>
     </g>
    </g>
   </g>
  </g>
 </g>
</svg>