<?xml version="1.0" standalone="no"?>
<!DOCTYPE svg PUBLIC "-//W3C//DTD SVG 20010904//EN"
 "http://www.w3.org/TR/2001/REC-SVG-20010904/DTD/svg10.dtd">
<svg version="1.0" xmlns="http://www.w3.org/2000/svg"
 width="700.000000pt" height="700.000000pt" viewBox="0 0 700.000000 700.000000"
 preserveAspectRatio="xMidYMid meet">
<metadata>
Created by potrace 1.14, written by Peter Selinger 2001-2017
</metadata>
<g transform="translate(0.000000,700.000000) scale(0.100000,-0.100000)"
fill="#000000" stroke="none">
<path d="M3269 6846 c-2 -2 -35 -6 -74 -9 -531 -46 -1091 -246 -1555 -558
-103 -69 -311 -231 -366 -284 -12 -11 -50 -48 -85 -81 -349 -336 -610 -721
-792 -1169 -63 -156 -140 -403 -163 -520 -2 -11 -8 -40 -14 -65 -11 -52 -27
-144 -35 -210 -4 -25 -8 -56 -10 -70 -25 -179 -25 -603 0 -780 2 -14 7 -50 10
-80 4 -30 9 -62 10 -70 28 -153 41 -213 66 -310 112 -429 305 -827 581 -1195
232 -309 596 -634 947 -845 94 -56 351 -190 365 -190 4 0 25 -9 49 -20 156
-72 483 -173 662 -204 17 -3 68 -12 115 -20 182 -31 291 -40 530 -40 298 -1
470 17 729 75 75 16 145 32 156 34 58 12 336 110 440 155 756 324 1370 911
1716 1640 130 273 231 579 275 835 2 17 7 37 9 45 2 8 7 38 10 65 4 28 10 77
15 110 36 243 29 625 -16 915 -90 580 -329 1125 -696 1587 -92 115 -110 135
-263 288 -439 438 -981 741 -1585 884 -69 17 -138 32 -155 35 -16 3 -41 8 -55
11 -14 2 -43 7 -65 10 -66 8 -118 15 -160 21 -42 7 -590 15 -596 10z m352
-297 c120 -2 209 -10 384 -34 200 -29 498 -115 722 -211 704 -301 1285 -875
1591 -1571 53 -120 127 -318 137 -363 2 -8 14 -58 28 -110 35 -127 60 -251 72
-356 4 -33 9 -67 11 -76 8 -44 18 -244 17 -348 -1 -171 -18 -385 -39 -490 -3
-14 -7 -36 -9 -50 -34 -226 -146 -563 -269 -810 -160 -323 -325 -551 -590
-816 -342 -342 -741 -587 -1206 -740 -74 -25 -144 -46 -155 -48 -11 -2 -40 -9
-65 -16 -54 -15 -56 -15 -193 -40 -59 -11 -136 -22 -170 -26 -34 -3 -65 -8
-68 -10 -3 -2 -87 -6 -186 -10 l-181 -6 -4 38 c-6 52 -1 724 6 859 14 251 17
293 31 505 5 64 11 132 20 220 3 25 7 77 10 115 5 65 10 113 20 190 2 17 7 62
10 100 4 39 9 72 11 74 1 2 10 -23 19 -55 93 -341 254 -640 403 -749 26 -19
70 -39 97 -46 45 -10 55 -9 95 10 68 32 112 104 125 206 7 53 7 191 1 235 -3
19 -7 51 -10 70 -14 92 -46 232 -81 343 l-14 48 52 -44 c62 -53 186 -147 193
-147 3 0 20 -11 37 -24 53 -39 199 -114 278 -142 93 -33 189 -39 239 -14 115
58 136 166 62 322 -75 158 -180 285 -412 498 -19 17 -30 30 -25 27 6 -3 44 -8
85 -12 41 -4 89 -9 105 -11 62 -7 243 -7 315 0 91 9 219 40 269 65 83 44 129
118 116 189 -6 35 -37 95 -60 117 -126 124 -388 226 -699 270 l-49 7 91 39
c258 110 519 301 582 426 30 60 33 145 5 187 -96 146 -438 123 -882 -61 -6 -2
22 45 62 106 178 270 271 540 233 680 -22 79 -87 131 -163 131 -54 0 -151 -36
-224 -84 -72 -47 -218 -184 -302 -286 -30 -36 -57 -67 -60 -70 -3 -3 -20 -26
-38 -52 -17 -27 -34 -48 -36 -48 -2 0 -3 66 -3 148 1 126 -6 266 -17 323 -2 9
-6 32 -9 50 -13 76 -18 95 -47 169 -89 232 -276 257 -396 53 -65 -111 -130
-321 -148 -478 -3 -27 -8 -61 -10 -74 -2 -13 -5 -47 -6 -77 -1 -30 -5 -54 -8
-54 -3 0 -24 33 -45 73 -37 69 -141 225 -188 284 -12 15 -62 67 -110 115 -161
160 -295 193 -385 96 -109 -116 -52 -435 149 -831 l19 -38 -53 31 c-68 40
-256 130 -272 130 -6 0 -16 4 -21 9 -6 5 -64 26 -130 46 -100 31 -136 37 -215
38 -80 1 -102 -2 -143 -22 -56 -27 -97 -81 -97 -128 0 -83 74 -208 197 -331
89 -88 183 -161 330 -257 51 -32 91 -60 90 -61 -1 -1 -54 -4 -117 -8 -150 -8
-183 -12 -320 -42 -321 -72 -462 -201 -395 -361 57 -135 335 -221 728 -225 72
0 125 -3 117 -6 -8 -3 -19 -9 -25 -14 -5 -4 -46 -34 -90 -65 -270 -191 -455
-419 -457 -560 -1 -236 309 -228 757 20 50 27 105 61 123 74 38 29 40 20 8
-49 -133 -286 -195 -588 -152 -731 30 -99 101 -154 184 -143 146 20 351 247
516 570 31 60 57 110 59 112 2 2 -3 -43 -9 -99 -7 -56 -16 -138 -19 -182 -4
-44 -8 -87 -10 -95 -1 -8 -6 -60 -10 -115 -4 -55 -8 -116 -10 -135 -2 -19 -6
-82 -10 -140 -4 -58 -8 -130 -10 -160 -12 -186 -20 -487 -20 -763 l0 -318 -56
5 c-93 9 -256 35 -374 60 -268 56 -604 186 -860 333 -798 458 -1352 1255
-1500 2158 -9 55 -18 111 -21 125 -10 59 -18 227 -18 380 -1 285 26 497 99
777 172 659 559 1240 1100 1652 409 312 819 490 1372 595 12 3 53 8 90 11 37
4 71 9 74 11 4 2 71 7 150 10 79 4 146 8 148 10 2 2 7 2 11 -1 3 -2 58 -5 121
-6z m109 -1211 c20 -32 54 -132 65 -193 20 -104 23 -161 20 -340 -5 -217 -6
-226 -37 -390 -39 -205 -125 -396 -167 -370 -28 16 -61 115 -82 240 -5 33 -12
73 -15 89 -8 47 -8 304 0 391 7 73 16 144 31 235 24 142 120 370 156 370 5 0
18 -15 29 -32z m-912 -212 c148 -99 328 -361 462 -671 69 -158 114 -366 96
-439 -9 -35 -33 -33 -87 5 -183 129 -430 523 -524 839 -49 164 -54 300 -11
300 8 0 37 -15 64 -34z m1834 -111 c14 -18 8 -61 -18 -151 -95 -332 -459 -809
-697 -914 -26 -12 -52 -18 -57 -15 -16 10 -12 75 10 159 76 297 438 778 684
907 54 28 66 30 78 14z m-2460 -540 c123 -28 319 -106 410 -162 21 -13 40 -23
43 -23 11 0 201 -123 250 -162 141 -113 231 -209 262 -280 18 -40 -1 -50 -83
-44 -291 21 -812 314 -1005 566 -44 57 -63 95 -55 109 10 16 104 14 178 -4z
m3054 -219 c16 -12 16 -15 -5 -49 -132 -214 -767 -503 -1096 -500 -106 1 -126
9 -106 45 92 173 580 431 948 502 90 17 236 18 259 2z m-1606 -461 c140 -30
234 -181 205 -327 -52 -260 -409 -304 -525 -64 -47 98 -31 212 43 301 69 82
167 114 277 90z m-880 -120 c140 -18 311 -81 318 -117 9 -47 -210 -125 -453
-163 -93 -14 -441 -14 -540 0 -159 23 -335 86 -335 120 0 38 167 112 315 141
11 2 31 6 45 9 57 11 112 16 240 22 74 3 136 6 137 7 3 3 220 -13 273 -19z
m1830 -145 c25 -1 61 -6 80 -11 19 -4 57 -11 83 -14 212 -24 515 -135 592
-215 27 -28 28 -31 11 -49 -35 -38 -156 -62 -341 -66 -291 -6 -620 61 -836
171 -53 26 -105 68 -119 95 -9 16 -5 21 27 37 21 11 52 22 68 26 17 3 41 9 55
12 14 3 63 7 110 11 47 3 86 6 87 7 2 2 128 -1 183 -4z m-1443 -218 c27 -4
-12 -93 -73 -169 -186 -231 -576 -487 -857 -562 -96 -26 -165 -28 -174 -4 -18
48 143 244 301 367 235 183 456 302 649 351 78 19 108 23 154 17z m916 -103
c278 -94 696 -452 841 -721 65 -120 55 -147 -44 -122 -74 19 -242 102 -341
170 -275 187 -499 425 -575 611 -38 95 -14 107 119 62z m-704 -106 c27 -53 -1
-262 -59 -431 -110 -322 -340 -682 -477 -747 -45 -22 -53 -14 -56 63 -2 43 16
170 34 240 88 343 310 736 488 867 41 30 57 31 70 8z m400 -48 c103 -87 243
-358 318 -615 78 -269 95 -620 29 -620 -21 0 -95 78 -141 150 -89 137 -163
305 -219 498 -31 104 -39 141 -61 257 -21 111 -14 302 12 348 8 14 32 7 62
-18z"/>
</g>
</svg>
